<?xml version="1.0" encoding="utf-8"?>
<!-- Generator: Adobe Illustrator 18.0.0, SVG Export Plug-In . SVG Version: 6.00 Build 0)  -->
<!DOCTYPE svg PUBLIC "-//W3C//DTD SVG 1.1//EN" "http://www.w3.org/Graphics/SVG/1.1/DTD/svg11.dtd">
<svg version="1.1" id="Icon_Set" xmlns="http://www.w3.org/2000/svg" xmlns:xlink="http://www.w3.org/1999/xlink" x="0px" y="0px"
	 viewBox="0 0 512 512" style="enable-background:new 0 0 512 512;" xml:space="preserve">
<style type="text/css">
	.st0{fill:#4C4372;}
	.st1{fill:#F0C48A;}
	.st2{fill:#FD919E;}
	.st3{fill:#E8677D;}
	.st4{fill:#D3E6F8;}
	.st5{fill:#A4CFF2;}
	.st6{fill:#7BABF1;}
	.st7{fill:#FFFFFF;}
</style>
<g>
	<g>
		<g>
			<g>
				<circle class="st1" cx="256" cy="256" r="207"/>
			</g>
		</g>
	</g>
	<g>
		<g>
			<g>
				<rect x="41.479" y="379.505" class="st4" width="30.984" height="63.316"/>
			</g>
		</g>
		<g>
			<g>
				<rect x="432.422" y="379.505" class="st5" width="30.984" height="63.316"/>
			</g>
		</g>
		<g>
			<g>
				<path class="st6" d="M72.463,379.505v87.332c0,21.705,17.595,39.3,39.299,39.3h77.93c21.705,0,39.299-17.595,39.299-39.3
					v-24.017h46.901v24.017c0,21.705,17.595,39.3,39.299,39.3h77.93c21.705,0,39.3-17.595,39.3-39.3v-87.332H72.463z"/>
			</g>
		</g>
		<g>
			<g>
				<g>
					<g>
						<path class="st2" d="M256,5.863L256,5.863c-99.4,0-179.979,80.58-179.979,179.979v89.43h359.959v-89.43
							C435.979,86.442,355.4,5.863,256,5.863z"/>
					</g>
				</g>
			</g>
		</g>
		<g>
			<g>
				<g>
					<g>
						<path class="st2" d="M468.672,346.169H43.328c-19.577,0-35.448-15.87-35.448-35.448l0,0c0-19.578,15.871-35.448,35.448-35.448
							h425.344c19.578,0,35.449,15.871,35.449,35.448l0,0C504.121,330.298,488.25,346.169,468.672,346.169z"/>
					</g>
				</g>
			</g>
		</g>
		<g>
			<g>
				<g>
					<g>
						<path class="st3" d="M504.014,312.827H7.986c1.095,18.591,16.475,33.342,35.342,33.342h425.345
							C487.539,346.169,502.919,331.418,504.014,312.827z"/>
					</g>
				</g>
			</g>
		</g>
		<g>
			<g>
				<g>
					<path class="st3" d="M256,5.863L256,5.863c-6.913,0-13.73,0.404-20.44,1.162c89.773,10.15,159.539,86.33,159.539,178.817
						v89.431h40.88v-89.431C435.979,86.442,355.4,5.863,256,5.863z"/>
				</g>
			</g>
		</g>
		<g>
			<g>
				<g>
					<g>
						<path class="st2" d="M256,5.863L256,5.863c-14.062,0-27.747,1.615-40.88,4.666v264.744h81.761V10.528
							C283.747,7.478,270.062,5.863,256,5.863z"/>
					</g>
				</g>
			</g>
		</g>
		<g>
			<g>
				<path class="st0" d="M393.122,512h-77.93c-24.903,0-45.163-20.259-45.163-45.162v-18.154h-35.175v18.154
					c0,24.903-20.26,45.162-45.162,45.162h-77.931C86.86,512,66.6,491.741,66.6,466.838v-87.332c0-3.238,2.625-5.863,5.863-5.863
					h359.959c3.237,0,5.862,2.625,5.862,5.863v87.332C438.284,491.741,418.025,512,393.122,512z M228.992,436.959h46.901
					c3.238,0,5.863,2.625,5.863,5.863v24.016c0,18.438,15,33.437,33.437,33.437h77.93c18.438,0,33.437-15,33.437-33.437v-81.47
					H78.325v81.47c0,18.438,15,33.437,33.437,33.437h77.931c18.437,0,33.437-15,33.437-33.437v-24.016
					C223.129,439.584,225.754,436.959,228.992,436.959z"/>
			</g>
		</g>
		<g>
			<g>
				<path class="st0" d="M72.463,448.684H41.479c-3.238,0-5.863-2.625-5.863-5.862v-63.316c0-3.238,2.625-5.863,5.863-5.863h30.984
					c3.237,0,5.862,2.625,5.862,5.863v63.316C78.325,446.059,75.7,448.684,72.463,448.684z M47.342,436.959H66.6v-51.591H47.342
					V436.959z"/>
			</g>
		</g>
		<g>
			<g>
				<path class="st0" d="M463.405,448.684h-30.983c-3.238,0-5.863-2.625-5.863-5.862v-63.316c0-3.238,2.625-5.863,5.863-5.863
					h30.983c3.238,0,5.863,2.625,5.863,5.863v63.316C469.268,446.059,466.643,448.684,463.405,448.684z M438.284,436.959h19.259
					v-51.591h-19.259V436.959z"/>
			</g>
		</g>
		<g>
			<g>
				<g>
					<g>
						<path class="st0" d="M435.979,281.135H76.021c-3.238,0-5.863-2.625-5.863-5.863v-89.43C70.158,83.368,153.526,0,256,0
							s185.842,83.368,185.842,185.842v89.43C441.842,278.51,439.217,281.135,435.979,281.135z M81.883,269.41h348.233v-83.568
							c0-96.008-78.108-174.117-174.117-174.117S81.883,89.834,81.883,185.842V269.41z"/>
					</g>
				</g>
			</g>
		</g>
		<g>
			<g>
				<g>
					<g>
						<path class="st0" d="M468.672,352.031H43.327c-22.778,0-41.31-18.532-41.31-41.311c0-22.779,18.532-41.311,41.31-41.311
							h425.345c22.778,0,41.311,18.532,41.311,41.311C509.983,333.5,491.451,352.031,468.672,352.031z M43.327,281.135
							c-16.313,0-29.585,13.272-29.585,29.585c0,16.314,13.272,29.586,29.585,29.586h425.345c16.313,0,29.585-13.272,29.585-29.586
							c0-16.313-13.272-29.585-29.585-29.585H43.327z"/>
					</g>
				</g>
			</g>
		</g>
		<g>
			<g>
				<g>
					<g>
						<path class="st0" d="M296.88,281.135h-81.761c-3.237,0-5.862-2.625-5.862-5.863V10.529c0-2.727,1.88-5.093,4.536-5.71
							c27.529-6.394,56.886-6.394,84.413,0c2.656,0.617,4.536,2.984,4.536,5.71v264.744
							C302.743,278.51,300.118,281.135,296.88,281.135z M220.982,269.41h70.036V15.25c-22.939-4.68-47.095-4.68-70.036,0V269.41z"/>
					</g>
				</g>
			</g>
		</g>
		<g>
			<g>
				<path class="st0" d="M139.059,471.743c-1.501,0-3.001-0.572-4.146-1.717l-23.06-23.059c-2.289-2.29-2.289-6.001,0-8.291
					c2.289-2.289,6.001-2.289,8.291,0l23.06,23.059c2.29,2.289,2.29,6.001,0,8.291C142.06,471.171,140.559,471.743,139.059,471.743z
					"/>
			</g>
		</g>
		<g>
			<g>
				<path class="st0" d="M181.953,471.45c-1.501,0-3.001-0.572-4.146-1.717l-54.424-54.425c-2.29-2.29-2.29-6.001,0-8.291
					c2.289-2.29,6.001-2.29,8.291,0l54.424,54.425c2.29,2.289,2.29,6.001,0,8.291C184.954,470.878,183.453,471.45,181.953,471.45z"
					/>
			</g>
		</g>
		<g>
			<g>
				<path class="st0" d="M347.376,471.743c-1.5,0-3-0.572-4.145-1.717l-23.06-23.059c-2.29-2.29-2.29-6.001,0-8.291
					c2.289-2.289,6.001-2.289,8.291,0l23.06,23.059c2.289,2.289,2.289,6.001,0,8.291
					C350.377,471.171,348.877,471.743,347.376,471.743z"/>
			</g>
		</g>
		<g>
			<g>
				<path class="st0" d="M390.271,471.45c-1.501,0-3.001-0.573-4.146-1.717l-54.425-54.425c-2.29-2.29-2.29-6.001,0-8.291
					c2.289-2.289,6.002-2.289,8.291,0l54.425,54.425c2.29,2.289,2.29,6.001,0,8.291C393.272,470.878,391.772,471.45,390.271,471.45z
					"/>
			</g>
		</g>
	</g>
</g>
</svg>
